<?xml version="1.0" encoding="UTF-8" ?>
<!DOCTYPE svg PUBLIC "-//W3C//DTD SVG 1.1//EN" "http://www.w3.org/Graphics/SVG/1.1/DTD/svg11.dtd">
<svg width="497pt" height="130pt" viewBox="0 0 557 217" version="1.1" xmlns="http://www.w3.org/2000/svg">
<g id="#000000ff">
</g>
<g id="#fefefeff">
<path fill="#fefefe" opacity="1.00" d=" M 180.46 16.66 C 200.63 9.73 221.53 4.00 242.96 3.31 C 255.75 2.99 269.45 4.27 280.28 11.73 C 288.21 17.18 293.00 26.51 293.25 36.09 C 293.62 50.44 286.86 63.69 279.37 75.49 C 272.27 75.55 265.18 75.65 258.09 75.43 C 265.76 66.58 272.88 56.92 276.80 45.76 C 278.63 40.17 279.65 33.69 276.90 28.22 C 274.00 22.23 267.58 19.03 261.47 17.29 C 247.59 13.40 232.92 14.30 218.82 16.32 C 183.60 21.80 150.03 35.20 118.82 52.13 C 95.28 64.97 73.12 80.39 53.12 98.26 C 40.97 109.45 29.53 121.67 20.95 135.86 C 15.79 144.65 11.16 154.62 12.22 165.07 C 12.78 171.56 17.40 177.14 23.19 179.83 C 32.13 184.01 42.27 184.61 51.99 184.21 C 75.33 182.88 97.87 175.77 119.57 167.46 C 128.75 163.95 137.61 159.70 146.47 155.47 C 146.64 161.75 146.51 168.04 146.51 174.33 C 124.72 183.14 102.21 190.50 78.95 194.24 C 64.15 196.60 48.90 197.64 34.07 194.92 C 24.33 193.03 14.29 189.04 8.11 180.91 C 2.36 173.69 1.45 163.76 3.31 154.97 C 5.77 143.71 11.81 133.63 18.56 124.43 C 27.92 111.99 38.94 100.85 50.81 90.81 C 64.50 79.28 78.82 68.46 94.06 59.04 C 121.21 41.85 150.13 27.33 180.46 16.66 Z" />
<path fill="#fefefe" opacity="1.00" d=" M 247.10 87.02 C 254.37 87.58 261.63 88.32 268.88 89.05 C 261.21 98.91 252.10 107.59 242.77 115.88 C 235.58 121.88 228.47 128.02 220.68 133.23 C 241.69 160.89 263.24 188.15 284.36 215.73 C 277.24 215.82 270.12 215.74 263.01 215.78 C 244.17 191.56 225.34 167.33 206.60 143.03 C 192.30 151.86 177.62 160.09 162.39 167.20 C 162.24 142.19 162.32 117.18 162.35 92.17 C 168.15 99.23 173.60 106.57 179.31 113.70 C 179.42 121.69 179.12 129.69 179.45 137.67 C 203.25 122.58 226.64 106.52 247.10 87.02 Z" />
<path fill="#fefefe" opacity="1.00" d=" M 310.94 93.24 C 312.56 90.33 315.41 87.57 319.02 88.06 C 322.20 88.16 324.22 90.89 325.71 93.36 C 341.10 119.01 356.65 144.55 371.91 170.27 C 366.13 170.33 360.35 170.32 354.57 170.31 C 350.70 163.61 346.44 157.13 342.90 150.25 C 329.99 149.83 317.07 150.22 304.16 150.06 C 306.21 146.11 308.60 142.35 310.71 138.43 C 319.01 138.13 327.32 138.44 335.62 138.26 C 329.63 128.35 323.63 118.45 317.84 108.43 C 305.62 129.05 293.46 149.71 281.22 170.32 C 275.75 170.30 270.29 170.32 264.83 170.30 C 279.98 144.48 295.67 118.98 310.94 93.24 Z" />
<path fill="#fefefe" opacity="1.00" d=" M 381.13 89.34 C 385.93 89.25 390.74 89.33 395.56 89.29 C 395.53 116.29 395.54 143.29 395.55 170.29 C 390.75 170.34 385.94 170.24 381.14 170.36 C 381.04 143.35 381.06 116.35 381.13 89.34 Z" />
<path fill="#fefefe" opacity="1.00" d=" M 410.13 89.29 C 424.42 89.32 438.71 89.30 453.01 89.31 C 457.98 89.29 463.03 89.06 467.88 90.43 C 478.53 92.89 487.97 100.27 492.60 110.22 C 500.74 127.67 496.59 151.07 480.72 162.81 C 473.98 167.92 465.44 170.49 457.02 170.33 C 441.39 170.31 425.76 170.31 410.12 170.32 C 410.04 143.31 410.04 116.30 410.13 89.29 M 424.34 156.12 C 434.92 156.01 445.51 156.09 456.09 156.08 C 461.51 156.01 467.10 154.86 471.49 151.50 C 484.60 142.59 485.86 121.42 474.65 110.48 C 470.01 105.89 463.44 103.51 456.96 103.54 C 446.08 103.55 435.21 103.56 424.34 103.56 C 424.29 121.08 424.30 138.60 424.34 156.12 Z" />
</g>
<g id="#47b3caff">
<path fill="#47b3ca" opacity="1.00" d=" M 162.45 59.05 C 168.14 66.20 173.68 73.47 179.33 80.64 C 179.31 89.79 179.45 98.94 179.27 108.08 C 173.96 101.26 168.64 94.45 163.33 87.64 C 161.90 86.12 162.40 83.91 162.28 82.03 C 162.42 74.37 162.15 66.70 162.45 59.05 Z" />
<path fill="#47b3ca" opacity="1.00" d=" M 281.24 183.43 C 282.32 183.49 283.41 183.54 284.49 183.60 C 284.54 189.71 284.59 195.83 284.53 201.94 C 284.90 203.91 282.26 202.89 281.23 203.24 C 280.80 196.65 280.49 190.00 281.24 183.43 Z" />
<path fill="#47b3ca" opacity="1.00" d=" M 307.70 183.52 C 308.51 183.53 309.33 183.55 310.16 183.57 C 311.95 190.12 313.85 196.65 315.48 203.25 C 314.51 203.12 312.57 202.87 311.60 202.74 C 310.57 198.50 309.34 194.30 308.21 190.08 C 306.24 194.52 304.61 199.15 302.24 203.40 C 301.67 203.35 300.52 203.24 299.94 203.18 C 297.74 198.88 295.76 194.45 294.03 189.94 C 292.91 194.43 291.74 198.92 290.22 203.30 C 289.43 203.23 287.84 203.08 287.05 203.01 C 288.54 196.31 290.15 189.59 292.70 183.20 C 293.27 183.36 294.42 183.68 295.00 183.85 C 297.22 188.45 299.40 193.11 301.09 197.95 C 303.28 193.13 305.23 188.20 307.70 183.52 Z" />
<path fill="#47b3ca" opacity="1.00" d=" M 336.82 183.66 C 337.67 183.58 338.52 183.50 339.37 183.43 C 341.54 189.77 343.16 196.30 344.78 202.80 C 343.99 202.96 342.41 203.27 341.62 203.43 C 339.97 199.40 339.20 195.09 337.92 190.94 C 334.91 194.38 334.32 199.30 331.87 203.14 C 331.32 203.18 330.20 203.28 329.65 203.32 C 327.16 199.09 325.04 194.55 323.74 189.80 C 322.40 194.23 321.10 198.68 319.91 203.16 C 318.68 203.15 317.45 203.14 316.23 203.14 C 318.23 196.69 319.50 190.04 321.74 183.67 C 322.36 183.61 323.60 183.49 324.23 183.44 C 327.01 187.74 327.72 193.12 330.93 197.15 C 332.87 192.64 334.92 188.18 336.82 183.66 Z" />
<path fill="#47b3ca" opacity="1.00" d=" M 347.28 183.43 C 348.35 183.50 349.43 183.57 350.52 183.64 C 350.56 190.17 350.60 196.71 350.49 203.25 C 349.00 203.28 346.33 203.36 346.82 201.04 C 346.97 195.17 346.41 189.26 347.28 183.43 Z" />
<path fill="#47b3ca" opacity="1.00" d=" M 411.93 183.62 C 412.73 183.55 413.54 183.50 414.35 183.44 C 418.10 190.00 422.14 196.38 426.03 202.85 C 424.68 203.10 423.33 203.18 421.99 203.08 C 420.49 201.84 419.72 199.99 418.66 198.40 C 415.80 198.33 412.95 198.31 410.10 198.30 C 410.27 197.59 410.62 196.17 410.80 195.46 C 412.79 195.38 414.79 195.32 416.80 195.28 C 415.56 193.06 414.26 190.87 412.99 188.67 C 410.48 193.35 407.53 197.78 405.08 202.50 C 404.58 202.67 403.60 203.01 403.10 203.18 C 399.93 202.04 395.67 204.82 393.55 201.40 C 392.34 199.99 391.04 198.65 389.48 197.63 C 387.23 197.74 384.97 197.72 382.72 197.66 C 382.85 196.59 383.00 195.53 383.18 194.48 C 386.42 194.47 389.69 194.79 392.91 194.30 C 395.48 192.99 395.37 188.48 392.55 187.56 C 388.62 187.09 384.65 187.41 380.71 187.46 C 380.76 192.69 380.82 197.92 380.68 203.16 C 379.57 203.12 378.47 203.09 377.37 203.07 C 377.28 196.55 377.30 190.03 377.40 183.51 C 382.68 183.68 388.00 183.17 393.25 183.83 C 399.25 184.72 400.38 194.55 395.05 196.96 C 396.35 199.23 398.34 200.96 400.26 202.69 C 404.40 196.50 407.96 189.93 411.93 183.62 Z" />
<path fill="#47b3ca" opacity="1.00" d=" M 423.36 183.58 C 429.34 183.48 435.33 183.50 441.31 183.56 C 441.31 184.51 441.32 186.40 441.32 187.35 C 438.95 187.33 436.59 187.32 434.23 187.31 C 434.22 192.47 434.04 197.63 434.30 202.79 C 433.04 203.00 431.79 203.15 430.53 203.25 C 430.50 197.96 430.53 192.68 430.47 187.39 C 428.10 187.36 425.73 187.34 423.37 187.33 C 423.36 186.08 423.36 184.83 423.36 183.58 Z" />
<path fill="#47b3ca" opacity="1.00" d=" M 476.58 183.39 C 477.08 183.42 478.08 183.47 478.58 183.49 C 482.99 188.22 488.01 192.32 492.47 196.99 C 492.50 192.51 492.54 188.03 492.54 183.56 C 493.77 183.57 495.02 183.59 496.26 183.61 C 495.95 190.21 496.62 196.84 495.84 203.42 C 495.17 203.32 493.82 203.14 493.15 203.04 C 488.16 198.91 484.11 193.78 479.41 189.33 C 479.28 193.98 479.37 198.64 479.31 203.30 C 478.42 203.17 476.63 202.93 475.74 202.81 C 476.17 196.36 474.77 189.68 476.58 183.39 Z" />
<path fill="#47b3ca" opacity="1.00" d=" M 357.93 184.79 C 362.66 182.49 368.27 183.85 373.37 183.60 C 373.35 184.53 373.33 186.38 373.31 187.31 C 368.05 187.97 361.65 185.53 357.52 189.89 C 357.32 192.05 357.26 194.22 357.34 196.38 C 360.34 200.91 366.10 199.24 370.64 199.52 C 370.64 197.92 370.65 196.32 370.67 194.73 C 367.89 194.72 365.12 194.72 362.35 194.66 C 362.34 193.67 362.34 192.69 362.34 191.71 C 366.41 191.73 370.47 191.74 374.54 191.70 C 374.36 195.47 374.97 199.42 374.21 203.09 C 369.56 203.11 364.82 203.54 360.22 202.85 C 352.25 201.06 350.69 188.52 357.93 184.79 Z" />
<path fill="#47b3ca" opacity="1.00" d=" M 443.57 183.58 C 444.48 183.58 446.30 183.56 447.21 183.56 C 447.22 190.11 447.23 196.66 447.20 203.22 C 446.30 203.19 444.49 203.15 443.59 203.12 C 443.47 196.61 443.53 190.10 443.57 183.58 Z" />
<path fill="#47b3ca" opacity="1.00" d=" M 452.88 185.84 C 456.20 182.95 460.89 183.45 464.97 183.63 C 468.74 183.70 472.05 186.35 473.35 189.83 C 474.22 194.64 472.88 200.40 467.94 202.41 C 462.87 203.60 456.57 204.29 452.45 200.37 C 448.77 196.44 448.85 189.51 452.88 185.84 M 454.88 188.89 C 453.83 191.23 452.60 194.27 454.37 196.60 C 457.38 201.03 463.78 199.85 468.10 198.31 C 470.61 195.06 470.51 189.37 466.25 187.64 C 462.46 187.06 458.29 186.81 454.88 188.89 Z" />
</g>
</svg>
