<?xml version="1.0" encoding="UTF-8"?>
<!DOCTYPE svg PUBLIC "-//W3C//DTD SVG 1.1//EN" "http://www.w3.org/Graphics/SVG/1.1/DTD/svg11.dtd">
<svg width="500pt" height="500pt" viewBox="0 0 500 500" version="1.1"
    xmlns="http://www.w3.org/2000/svg">
    <g id="#3abad5ff">
        <path fill="#3abad5" opacity="1.00"
            d=" M 240.50 0.00 L 259.86 0.00 C 267.22 1.22 274.67 1.37 282.06 2.27 C 316.99 6.75 350.91 18.87 380.85 37.42 C 426.45 65.32 462.41 108.43 482.27 158.01 C 490.34 178.18 495.42 199.45 498.15 220.98 C 498.69 227.44 499.04 233.93 500.00 240.36 L 500.00 259.62 C 498.64 268.69 498.62 277.90 497.00 286.93 C 491.22 326.31 475.84 364.30 452.26 396.39 C 414.04 449.67 353.95 486.77 289.10 496.68 C 279.27 498.40 269.27 498.65 259.40 500.00 L 240.94 500.00 C 237.30 499.49 233.65 499.14 229.99 498.87 C 179.15 495.07 129.72 474.96 90.57 442.33 C 57.76 415.10 31.94 379.44 16.84 339.54 C 10.03 322.28 5.58 304.16 2.77 285.85 C 1.29 277.18 1.38 268.35 0.00 259.67 L 0.00 240.33 C 0.88 234.92 1.28 229.46 1.63 224.00 C 5.73 183.86 19.84 144.83 42.37 111.35 C 65.69 76.41 98.00 47.60 135.25 28.21 C 161.60 14.56 190.41 5.64 219.86 2.04 C 226.74 1.35 233.67 1.24 240.50 0.00 M 224.54 11.84 C 195.22 15.10 166.45 23.59 140.28 37.26 C 101.01 57.49 67.60 88.89 44.82 126.73 C 29.04 152.74 18.49 181.84 13.52 211.83 C 9.41 239.32 9.60 267.56 14.71 294.91 C 20.06 322.51 30.19 349.19 44.75 373.26 C 68.17 412.18 102.83 444.29 143.53 464.49 C 164.76 475.19 187.67 482.41 211.07 486.42 C 246.52 491.83 283.29 490.12 317.70 479.76 C 346.82 471.22 374.23 456.94 398.03 438.13 C 446.79 400.01 479.81 342.37 487.52 280.93 C 490.76 253.03 489.98 224.45 483.53 197.06 C 469.20 132.14 425.99 74.46 368.14 41.83 C 346.03 29.19 321.87 20.11 296.87 15.21 C 273.15 10.19 248.64 9.83 224.54 11.84 Z" />
        <path fill="#3abad5" opacity="1.00"
            d=" M 176.58 200.82 C 181.24 206.40 185.61 212.23 190.07 217.97 C 191.07 219.08 190.62 220.68 190.76 222.03 C 190.67 228.57 190.85 235.10 190.64 241.64 C 186.51 236.36 182.45 231.01 178.24 225.79 C 177.44 224.67 176.33 223.55 176.51 222.05 C 176.52 214.97 176.43 207.90 176.58 200.82 Z" />
        <path fill="#3abad5" opacity="1.00"
            d=" M 298.92 305.64 C 299.68 305.64 300.43 305.65 301.20 305.65 C 302.68 311.09 304.05 316.56 305.59 321.99 C 304.82 321.94 303.28 321.83 302.51 321.78 C 301.65 318.09 300.83 314.37 299.51 310.81 C 297.60 314.50 296.94 319.02 294.13 322.13 L 292.83 322.27 C 290.78 318.61 289.23 314.67 287.57 310.82 C 286.57 314.48 285.71 318.17 284.58 321.79 C 283.84 321.83 282.36 321.91 281.62 321.96 C 283.26 316.34 284.13 310.44 286.73 305.15 C 290.89 307.70 290.89 313.54 293.76 317.24 C 295.71 313.48 297.22 309.52 298.92 305.64 Z" />
        <path fill="#3abad5" opacity="1.00"
            d=" M 323.89 305.44 C 324.61 305.57 325.32 305.72 326.04 305.90 C 327.80 311.15 328.72 316.65 330.53 321.89 C 329.75 321.88 328.19 321.85 327.41 321.84 C 326.56 318.21 325.72 314.56 324.54 311.02 C 322.56 314.38 321.68 318.26 319.65 321.60 C 319.22 321.81 318.36 322.24 317.93 322.45 C 315.47 318.91 314.27 314.64 312.36 310.78 C 311.41 314.49 310.80 318.32 309.21 321.82 C 308.53 321.85 307.15 321.89 306.46 321.91 C 308.41 316.46 308.55 310.17 311.85 305.33 L 313.01 305.80 C 315.19 309.38 316.57 313.37 318.27 317.18 C 320.93 313.69 322.00 309.34 323.89 305.44 Z" />
        <path fill="#3abad5" opacity="1.00"
            d=" M 332.42 305.79 C 333.41 305.79 334.40 305.79 335.39 305.80 C 335.40 311.15 335.41 316.49 335.42 321.84 C 334.40 321.84 333.38 321.85 332.37 321.87 C 332.40 316.51 332.33 311.15 332.42 305.79 Z" />
        <path fill="#3abad5" opacity="1.00"
            d=" M 413.70 305.81 C 414.73 305.82 415.77 305.83 416.81 305.85 C 416.84 311.21 416.83 316.58 416.79 321.95 C 415.75 321.88 414.71 321.81 413.68 321.76 C 413.75 316.44 413.73 311.12 413.70 305.81 Z" />
        <path fill="#3abad5" opacity="1.00"
            d=" M 455.38 305.53 C 456.32 305.59 457.27 305.64 458.23 305.70 C 458.09 311.15 458.35 316.61 458.06 322.06 C 456.77 321.78 455.17 321.99 454.32 320.75 C 450.94 317.26 447.73 313.57 443.98 310.46 C 443.85 314.28 443.91 318.11 443.85 321.94 C 443.22 321.91 441.94 321.87 441.31 321.84 C 441.46 316.35 441.06 310.85 441.60 305.38 C 443.70 305.50 445.14 307.09 446.52 308.47 C 449.40 311.43 452.33 314.35 455.30 317.22 C 455.43 313.32 455.36 309.43 455.38 305.53 Z" />
        <path fill="#3abad5" opacity="1.00"
            d=" M 276.67 305.86 C 277.38 305.83 278.79 305.79 279.50 305.77 C 279.53 311.13 279.48 316.48 279.54 321.84 C 278.82 321.86 277.38 321.89 276.66 321.90 C 276.66 316.55 276.66 311.20 276.67 305.86 Z" />
        <path fill="#3abad5" opacity="1.00"
            d=" M 343.04 321.63 C 336.52 319.87 335.65 308.89 342.08 306.43 C 346.05 305.26 350.27 306.06 354.35 305.82 C 354.38 306.74 354.40 307.66 354.44 308.59 C 350.94 308.65 347.43 308.42 343.95 308.73 C 340.07 310.23 339.59 316.65 343.36 318.48 C 346.33 319.21 349.45 318.81 352.49 318.90 C 352.49 317.61 352.49 316.34 352.50 315.06 C 350.06 315.06 347.62 315.01 345.19 314.91 C 345.22 314.30 345.29 313.08 345.32 312.47 C 348.75 312.49 352.19 312.48 355.62 312.47 C 355.61 315.60 355.61 318.73 355.60 321.86 C 351.42 321.80 347.20 322.19 343.04 321.63 Z" />
        <path fill="#3abad5" opacity="1.00"
            d=" M 358.15 305.79 C 363.00 306.12 367.98 305.24 372.75 306.35 C 376.92 308.49 376.43 314.67 372.83 317.16 C 374.19 318.82 375.67 320.40 376.86 322.21 C 373.02 323.03 371.03 319.79 368.74 317.48 C 366.76 317.51 364.79 317.51 362.83 317.51 C 362.83 316.85 362.84 315.51 362.84 314.84 C 365.49 314.83 368.16 315.02 370.80 314.67 C 373.54 313.78 372.84 310.33 371.39 308.59 C 367.97 308.61 364.55 308.57 361.13 308.57 C 361.10 312.99 361.13 317.41 361.13 321.84 C 360.38 321.86 358.88 321.89 358.13 321.91 C 358.10 316.54 358.09 311.16 358.15 305.79 Z" />
        <path fill="#3abad5" opacity="1.00"
            d=" M 387.16 306.01 C 388.43 304.43 389.73 306.65 390.42 307.58 C 393.12 312.40 396.15 317.02 398.87 321.83 C 397.61 321.82 396.36 321.81 395.11 321.81 C 394.44 320.55 393.77 319.30 393.11 318.05 C 390.51 318.06 387.92 318.06 385.33 318.07 C 385.68 317.46 386.39 316.24 386.74 315.63 C 388.40 315.59 390.07 315.54 391.74 315.49 C 390.50 313.62 389.24 311.76 388.01 309.88 C 385.69 313.88 383.07 317.71 381.01 321.85 C 380.11 321.87 378.30 321.90 377.39 321.92 C 380.68 316.64 383.59 311.10 387.16 306.01 Z" />
        <path fill="#3abad5" opacity="1.00"
            d=" M 396.61 308.57 C 396.88 307.69 396.19 305.86 397.66 305.88 C 402.38 305.71 407.12 305.91 411.86 305.83 C 411.86 306.53 411.86 307.91 411.86 308.61 C 409.93 308.59 408.00 308.58 406.07 308.58 C 406.00 313.02 406.05 317.47 405.92 321.91 C 405.18 321.89 403.69 321.86 402.95 321.85 C 402.89 317.42 402.96 313.00 402.91 308.58 C 400.80 308.58 398.71 308.58 396.61 308.57 Z" />
        <path fill="#3abad5" opacity="1.00"
            d=" M 423.36 306.50 C 427.19 305.44 431.46 305.49 435.28 306.62 C 440.66 309.48 440.10 318.90 434.63 321.38 C 431.28 322.18 427.74 322.06 424.36 321.58 C 418.10 319.44 417.20 309.38 423.36 306.50 M 424.27 309.42 C 421.51 311.58 421.44 316.38 424.46 318.33 C 427.38 319.13 430.66 319.22 433.58 318.41 C 437.53 316.41 436.89 310.50 433.01 308.80 C 430.15 308.58 426.88 307.96 424.27 309.42 Z" />
    </g>
    <g id="#000000ff">
        <path fill="#000000" opacity="1.00"
            d=" M 224.54 11.84 C 248.64 9.83 273.15 10.19 296.87 15.21 C 321.87 20.11 346.03 29.19 368.14 41.83 C 425.99 74.46 469.20 132.14 483.53 197.06 C 489.98 224.45 490.76 253.03 487.52 280.93 C 479.81 342.37 446.79 400.01 398.03 438.13 C 374.23 456.94 346.82 471.22 317.70 479.76 C 283.29 490.12 246.52 491.83 211.07 486.42 C 187.67 482.41 164.76 475.19 143.53 464.49 C 102.83 444.29 68.17 412.18 44.75 373.26 C 30.19 349.19 20.06 322.51 14.71 294.91 C 9.60 267.56 9.41 239.32 13.52 211.83 C 18.49 181.84 29.04 152.74 44.82 126.73 C 67.60 88.89 101.01 57.49 140.28 37.26 C 166.45 23.59 195.22 15.10 224.54 11.84 M 192.09 164.27 C 160.85 175.44 131.17 190.93 104.02 209.98 C 84.92 223.85 66.21 239.05 52.56 258.54 C 45.65 268.73 39.43 280.84 41.58 293.54 C 42.83 301.72 48.94 308.30 56.29 311.64 C 69.01 317.30 83.35 317.46 96.96 316.00 C 119.62 313.12 141.88 306.95 162.82 297.80 C 163.88 292.56 162.99 287.01 163.09 281.66 C 138.73 293.28 113.00 303.00 85.97 305.84 C 77.88 306.14 69.60 306.28 61.91 303.40 C 54.75 301.43 49.21 294.59 49.52 287.04 C 49.98 277.98 54.24 269.63 59.06 262.12 C 66.27 251.23 75.40 241.75 85.02 232.97 C 118.60 203.35 158.90 181.35 201.93 169.01 C 213.05 166.23 224.30 163.65 235.78 163.19 C 246.50 162.64 257.94 162.95 267.47 168.47 C 272.18 171.17 274.81 176.66 274.18 182.04 C 273.33 194.66 264.61 204.59 257.27 214.17 C 263.30 214.38 269.34 214.21 275.37 214.26 C 281.79 203.99 287.81 192.46 287.09 179.99 C 286.64 169.27 278.70 159.75 268.62 156.48 C 258.55 152.51 247.51 152.88 236.91 153.65 C 221.58 155.22 206.69 159.46 192.09 164.27 M 176.58 200.82 C 176.43 207.90 176.52 214.97 176.51 222.05 C 176.33 223.55 177.44 224.67 178.24 225.79 C 182.45 231.01 186.51 236.36 190.64 241.64 C 190.85 235.10 190.67 228.57 190.76 222.03 C 190.62 220.68 191.07 219.08 190.07 217.97 C 185.61 212.23 181.24 206.40 176.58 200.82 M 191.23 266.19 C 190.55 259.82 191.10 253.40 190.82 247.02 C 190.29 245.19 188.86 243.78 187.76 242.26 C 183.90 237.67 180.46 232.73 176.35 228.36 C 175.99 249.54 176.29 270.75 176.36 291.93 C 189.04 286.02 201.42 279.38 213.15 271.74 C 215.14 273.10 216.48 275.11 217.90 277.01 C 232.41 295.56 246.77 314.24 261.23 332.84 C 267.29 333.00 273.35 332.91 279.41 332.88 C 274.85 325.53 268.94 319.17 263.79 312.25 C 251.39 295.79 238.18 279.91 226.16 263.18 C 240.67 252.01 254.89 240.19 266.50 225.94 C 260.34 224.86 254.10 224.27 247.87 223.77 C 230.70 240.02 211.37 253.87 191.23 266.19 M 301.51 229.64 C 288.65 251.23 275.43 272.61 262.79 294.32 C 267.50 294.51 272.22 294.50 276.93 294.36 C 282.67 284.35 288.80 274.57 294.52 264.55 C 299.04 257.35 302.86 249.69 307.77 242.74 C 311.00 247.65 313.84 252.81 316.94 257.81 C 318.55 260.94 320.92 263.69 321.87 267.14 C 315.14 267.31 308.41 267.13 301.68 267.34 C 299.80 270.61 297.74 273.78 296.09 277.19 C 306.73 277.33 317.39 276.99 328.02 277.37 C 332.23 282.51 334.98 288.80 338.68 294.36 C 343.62 294.42 348.57 294.47 353.51 294.35 C 341.17 273.20 328.08 252.49 315.69 231.36 C 314.03 228.84 312.52 225.37 309.15 224.92 C 305.73 224.24 302.92 226.80 301.51 229.64 M 361.19 226.03 C 361.14 248.83 361.10 271.65 361.24 294.45 C 365.29 294.43 369.35 294.48 373.41 294.41 C 373.36 271.73 373.62 249.05 373.30 226.38 C 369.60 225.29 365.17 226.17 361.19 226.03 M 385.67 225.94 C 385.44 248.76 385.62 271.59 385.59 294.41 C 397.70 294.53 409.81 294.32 421.93 294.43 C 427.64 294.33 433.59 294.32 438.91 291.96 C 449.35 287.45 456.92 277.16 458.48 265.94 C 459.40 257.96 459.11 249.36 454.78 242.32 C 449.57 232.21 438.34 225.85 427.04 226.04 C 413.25 226.00 399.46 225.91 385.67 225.94 M 298.92 305.64 C 297.22 309.52 295.71 313.48 293.76 317.24 C 290.89 313.54 290.89 307.70 286.73 305.15 C 284.13 310.44 283.26 316.34 281.62 321.96 C 282.36 321.91 283.84 321.83 284.58 321.79 C 285.71 318.17 286.57 314.48 287.57 310.82 C 289.23 314.67 290.78 318.61 292.83 322.27 L 294.13 322.13 C 296.94 319.02 297.60 314.50 299.51 310.81 C 300.83 314.37 301.65 318.09 302.51 321.78 C 303.28 321.83 304.82 321.94 305.59 321.99 C 304.05 316.56 302.68 311.09 301.20 305.65 C 300.43 305.65 299.68 305.64 298.92 305.64 M 323.89 305.44 C 322.00 309.34 320.93 313.69 318.27 317.18 C 316.57 313.37 315.19 309.38 313.01 305.80 L 311.85 305.33 C 308.55 310.17 308.41 316.46 306.46 321.91 C 307.15 321.89 308.53 321.85 309.21 321.82 C 310.80 318.32 311.41 314.49 312.36 310.78 C 314.27 314.64 315.47 318.91 317.93 322.45 C 318.36 322.24 319.22 321.81 319.65 321.60 C 321.68 318.26 322.56 314.38 324.54 311.02 C 325.72 314.56 326.56 318.21 327.41 321.84 C 328.19 321.85 329.75 321.88 330.53 321.89 C 328.72 316.65 327.80 311.15 326.04 305.90 C 325.32 305.72 324.61 305.57 323.89 305.44 M 332.42 305.79 C 332.33 311.15 332.40 316.51 332.37 321.87 C 333.38 321.85 334.40 321.84 335.42 321.84 C 335.41 316.49 335.40 311.15 335.39 305.80 C 334.40 305.79 333.41 305.79 332.42 305.79 M 413.70 305.81 C 413.73 311.12 413.75 316.44 413.68 321.76 C 414.71 321.81 415.75 321.88 416.79 321.95 C 416.83 316.58 416.84 311.21 416.81 305.85 C 415.77 305.83 414.73 305.82 413.70 305.81 M 455.38 305.53 C 455.36 309.43 455.43 313.32 455.30 317.22 C 452.33 314.35 449.40 311.43 446.52 308.47 C 445.14 307.09 443.70 305.50 441.60 305.38 C 441.06 310.85 441.46 316.35 441.31 321.84 C 441.94 321.87 443.22 321.91 443.85 321.94 C 443.91 318.11 443.85 314.28 443.98 310.46 C 447.73 313.57 450.94 317.26 454.32 320.75 C 455.17 321.99 456.77 321.78 458.06 322.06 C 458.35 316.61 458.09 311.15 458.23 305.70 C 457.27 305.64 456.32 305.59 455.38 305.53 M 276.67 305.86 C 276.66 311.20 276.66 316.55 276.66 321.90 C 277.38 321.89 278.82 321.86 279.54 321.84 C 279.48 316.48 279.53 311.13 279.50 305.77 C 278.79 305.79 277.38 305.83 276.67 305.86 M 343.04 321.63 C 347.20 322.19 351.42 321.80 355.60 321.86 C 355.61 318.73 355.61 315.60 355.62 312.47 C 352.19 312.48 348.75 312.49 345.32 312.47 C 345.29 313.08 345.22 314.30 345.19 314.91 C 347.62 315.01 350.06 315.06 352.50 315.06 C 352.49 316.34 352.49 317.61 352.49 318.90 C 349.45 318.81 346.33 319.21 343.36 318.48 C 339.59 316.65 340.07 310.23 343.95 308.73 C 347.43 308.42 350.94 308.65 354.44 308.59 C 354.40 307.66 354.38 306.74 354.35 305.82 C 350.27 306.06 346.05 305.26 342.08 306.43 C 335.65 308.89 336.52 319.87 343.04 321.63 M 358.15 305.79 C 358.09 311.16 358.10 316.54 358.13 321.91 C 358.88 321.89 360.38 321.86 361.13 321.84 C 361.13 317.41 361.10 312.99 361.13 308.57 C 364.55 308.57 367.97 308.61 371.39 308.59 C 372.84 310.33 373.54 313.78 370.80 314.67 C 368.16 315.02 365.49 314.83 362.84 314.84 C 362.84 315.51 362.83 316.85 362.83 317.51 C 364.79 317.51 366.76 317.51 368.74 317.48 C 371.03 319.79 373.02 323.03 376.86 322.21 C 375.67 320.40 374.19 318.82 372.83 317.16 C 376.43 314.67 376.92 308.49 372.75 306.35 C 367.98 305.24 363.00 306.12 358.15 305.79 M 387.16 306.01 C 383.59 311.10 380.68 316.64 377.39 321.92 C 378.30 321.90 380.11 321.87 381.01 321.85 C 383.07 317.71 385.69 313.88 388.01 309.88 C 389.24 311.76 390.50 313.62 391.74 315.49 C 390.07 315.54 388.40 315.59 386.74 315.63 C 386.39 316.24 385.68 317.46 385.33 318.07 C 387.92 318.06 390.51 318.06 393.11 318.05 C 393.77 319.30 394.44 320.55 395.11 321.81 C 396.36 321.81 397.61 321.82 398.87 321.83 C 396.15 317.02 393.12 312.40 390.42 307.58 C 389.73 306.65 388.43 304.43 387.16 306.01 M 396.61 308.57 C 398.71 308.58 400.80 308.58 402.91 308.58 C 402.96 313.00 402.89 317.42 402.95 321.85 C 403.69 321.86 405.18 321.89 405.92 321.91 C 406.05 317.47 406.00 313.02 406.07 308.58 C 408.00 308.58 409.93 308.59 411.86 308.61 C 411.86 307.91 411.86 306.53 411.86 305.83 C 407.12 305.91 402.38 305.71 397.66 305.88 C 396.19 305.86 396.88 307.69 396.61 308.57 M 423.36 306.50 C 417.20 309.38 418.10 319.44 424.36 321.58 C 427.74 322.06 431.28 322.18 434.63 321.38 C 440.10 318.90 440.66 309.48 435.28 306.62 C 431.46 305.49 427.19 305.44 423.36 306.50 Z" />
        <path fill="#000000" opacity="1.00"
            d=" M 398.70 238.11 C 408.15 238.01 417.60 237.89 427.04 238.13 C 431.69 238.20 435.99 240.37 439.47 243.34 C 449.46 252.35 448.66 270.64 437.40 278.27 C 433.32 281.45 427.97 282.18 422.95 282.12 C 414.66 282.03 406.35 282.34 398.07 281.83 C 397.52 271.90 398.00 261.93 397.87 251.99 C 398.01 247.36 397.35 242.61 398.70 238.11 Z" />
        <path fill="#000000" opacity="1.00"
            d=" M 424.27 309.42 C 426.88 307.96 430.15 308.58 433.01 308.80 C 436.89 310.50 437.53 316.41 433.58 318.41 C 430.66 319.22 427.38 319.13 424.46 318.33 C 421.44 316.38 421.51 311.58 424.27 309.42 Z" />
    </g>
</svg>